# xmcd CD database file
# Copyright (C) 1993-1996 Ti Kan
#
# Track frame offsets:
# 150
# 9877
# 23685
# 38102
# 56032
# 68842
# 82492
# 97752
# 112682
# 128180
#
# Disc length: 1887 seconds
# Revision: 0
# Processed by: cddbd v1.4b41PL1 Copyright (c) Steve Scherf et al.
# Submitted via: CDSpectrumPro v3.2.327
#
DISCID=73075d0a
DTITLE=George Fox - Spice Of Life
DYEAR=1900
DGENRE=
TTITLE0=There Goes My Love
TTITLE1=Fell In Love And I Can't Get Out
TTITLE2=Only The Best
TTITLE3=I Know Where You Go
TTITLE4=It Don't Really Matter Why
TTITLE5=Wastin' Time
TTITLE6=Everything About You
TTITLE7=Here Today, Here Tomorrow
TTITLE8=Spice Of Life
TTITLE9=I Surrender
EXTD=
EXTT0=
EXTT1=
EXTT2=
EXTT3=
EXTT4=
EXTT5=
EXTT6=
EXTT7=
EXTT8=
EXTT9=
PLAYORDER=
